<?xml version="1.0" encoding="utf-8"?>
<!-- Generator: Adobe Illustrator 16.0.4, SVG Export Plug-In . SVG Version: 6.00 Build 0)  -->
<!DOCTYPE svg PUBLIC "-//W3C//DTD SVG 1.1//EN" "http://www.w3.org/Graphics/SVG/1.1/DTD/svg11.dtd">
<svg version="1.1" xmlns="http://www.w3.org/2000/svg" xmlns:xlink="http://www.w3.org/1999/xlink" x="0px" y="0px" width="500px"
	 height="500px" viewBox="0 0 500 500" enable-background="new 0 0 500 500" xml:space="preserve">
<g id="Layer_5" display="none">
	<rect display="inline" fill="#492D7C" width="500" height="500"/>
</g>
<g id="Moon" display="none">
	<g id="Layer_1" display="inline">
		<circle fill="#A98995" cx="245.43" cy="254.602" r="148.772"/>
	</g>
	<g id="Layer_2" display="inline">
		<defs>
			<circle id="SVGID_1_" cx="246.183" cy="255.354" r="148.772"/>
		</defs>
		<clipPath id="SVGID_2_">
			<use xlink:href="#SVGID_1_"  overflow="visible"/>
		</clipPath>
		<g id="Layer_3" clip-path="url(#SVGID_2_)">
			<circle fill="#E2C7C1" cx="308.905" cy="213.438" r="148.772"/>
		</g>
	</g>
	<g id="Layer_4" display="inline">
		<circle fill="#A98995" cx="170.234" cy="216.679" r="37.922"/>
		<circle fill="#A98995" cx="183.872" cy="299.694" r="29.416"/>
		<circle fill="#A98995" cx="219.098" cy="254.602" r="19.368"/>
		<circle fill="#A98995" cx="219.425" cy="342.342" r="44.06"/>
	</g>
</g>
<g id="Rocket">
	<g id="Layer_13">
	</g>
	<g id="Layer_14">
		<circle fill="#A4A1B7" cx="150.861" cy="44.295" r="12.801"/>
		<circle fill="#A4A1B7" cx="155.646" cy="60.982" r="8.686"/>
		<circle fill="#A4A1B7" cx="131.179" cy="59.018" r="8.179"/>
		<circle fill="#A4A1B7" cx="122.078" cy="51.691" r="6.411"/>
		<circle fill="#A4A1B7" cx="116.401" cy="59.76" r="8.068"/>
		<circle fill="#A4A1B7" cx="95.872" cy="73.128" r="3.461"/>
		<circle fill="#A4A1B7" cx="95.333" cy="63.28" r="2.333"/>
		<circle fill="#A4A1B7" cx="105.781" cy="61.371" r="5.296"/>
	</g>
	<g id="Layer_12">
		<circle fill="#FFFFFF" stroke="#FBB040" stroke-width="5" stroke-miterlimit="10" cx="181.846" cy="45.858" r="13.212"/>
		<circle fill="#FFFFFF" stroke="#FBB040" stroke-width="5" stroke-miterlimit="10" cx="174.194" cy="54.366" r="9.861"/>
		<circle fill="#FFFFFF" stroke="#FBB040" stroke-width="5" stroke-miterlimit="10" cx="159.775" cy="45.281" r="8.231"/>
		<circle fill="#FFFFFF" stroke="#FBB040" stroke-width="5" stroke-miterlimit="10" cx="145.216" cy="57.089" r="5.857"/>
		<circle fill="#FFFFFF" stroke="#FBB040" stroke-width="5" stroke-miterlimit="10" cx="133.275" cy="46.052" r="4.785"/>
	</g>
	<g id="Layer_6">
		<path fill="#D5CFE7" d="M192.657,35.858c0,0,56.036-5.172,78.449-5.172s57.758,14.655,57.758,14.655s-26.723,15.517-57.758,14.655
			c-31.035-0.862-78.449-3.448-78.449-3.448"/>
		<polyline fill="#BC344B" points="218.229,47.673 189.38,39.327 159.311,46.467 189.36,52.296 		"/>
		<polyline fill="#BC344B" points="213.366,34.502 188.788,27.33 160.223,35.659 		"/>
		<polyline fill="#BC344B" points="213.366,55.938 189.123,64.124 160.223,57.095 		"/>
	</g>
	<g id="Layer_9">
		<ellipse fill="#6758A6" cx="256.743" cy="45.812" rx="6.743" ry="6.485"/>
		<ellipse fill="#6758A6" cx="238.466" cy="45.812" rx="6.743" ry="6.485"/>
	</g>
	<g id="Layer_8">
		<defs>
			<path id="SVGID_3_" d="M192.657,35.858c0,0,56.036-5.172,78.449-5.172s57.758,14.655,57.758,14.655s-26.723,15.517-57.758,14.655
				s-78.449-3.448-78.449-3.448"/>
		</defs>
		<clipPath id="SVGID_4_">
			<use xlink:href="#SVGID_3_"  overflow="visible"/>
		</clipPath>
		<g id="Layer_10" clip-path="url(#SVGID_4_)">
			<path fill="#BC344B" d="M282.76,10.466c0,0-7.759,15.552-7.759,33.638s7.759,37.052,7.759,37.052l53.448-37.052"/>
		</g>
	</g>
</g>
</svg>
