<svg id="Layer_1" data-name="Layer 1" xmlns="http://www.w3.org/2000/svg" width="202.84" height="192.02" viewBox="0 0 202.84 192.02">
  <defs>
    <style>
      .cls-1, .cls-5 {
        fill: #fff;
      }

      .cls-1, .cls-4 {
        stroke: #000;
        stroke-width: 5px;
      }

      .cls-1, .cls-2, .cls-3, .cls-4 {
        stroke-miterlimit: 10;
      }

      .cls-2 {
        fill: none;
      }

      .cls-2, .cls-3 {
        stroke: #d4c8e3;
        stroke-width: 3px;
      }

      .cls-3 {
        fill: #d4c8e3;
      }

      .cls-4, .cls-6 {
        fill: #4f357a;
      }
    </style>
  </defs>
  <title>Artboard 1</title>
  <polygon class="cls-1" points="182.07 142.57 182.07 49.45 101.42 2.89 20.77 49.45 20.77 142.57 101.42 189.14 182.07 142.57"/>
  <polyline class="cls-2" points="159.43 79.7 159.43 59.24 120.63 37.33"/>
  <g>
    <polyline class="cls-2" points="42.99 79.7 42.99 59.24 81.8 37.33"/>
    <circle class="cls-3" cx="81.8" cy="37.33" r="2.47"/>
  </g>
  <g>
    <polyline class="cls-2" points="64.75 111.73 64.75 132.72 55.78 143.87"/>
    <polyline class="cls-2" points="88.48 111.73 88.48 120.26 88.48 158.67"/>
    <line class="cls-2" x1="42.99" y1="111.73" x2="42.99" y2="135.2"/>
    <polyline class="cls-2" points="75.11 148.78 75.11 130.01 88.48 118.43"/>
    <circle class="cls-3" cx="42.99" cy="137.07" r="1.87"/>
    <circle class="cls-3" cx="54.82" cy="144.97" r="1.87"/>
    <circle class="cls-3" cx="75.11" cy="150.65" r="1.87"/>
    <circle class="cls-3" cx="88.48" cy="159.85" r="1.87"/>
  </g>
  <line class="cls-2" x1="101.42" y1="111.73" x2="101.42" y2="166.86"/>
  <g>
    <polyline class="cls-2" points="137.67 112.08 137.67 133.06 146.65 144.21"/>
    <polyline class="cls-2" points="113.94 112.08 113.94 120.6 113.94 159.01"/>
    <line class="cls-2" x1="159.43" y1="112.08" x2="159.43" y2="135.54"/>
    <polyline class="cls-2" points="127.32 149.12 127.32 130.36 113.94 118.77"/>
    <circle class="cls-3" cx="159.43" cy="137.41" r="1.87"/>
    <circle class="cls-3" cx="147.61" cy="145.31" r="1.87"/>
    <circle class="cls-3" cx="127.32" cy="150.8" r="1.87"/>
    <circle class="cls-3" cx="113.94" cy="160.19" r="1.87"/>
  </g>
  <polygon class="cls-2" points="175.39 138.36 175.39 53.67 101.42 11.32 27.46 53.67 27.46 138.36 101.42 180.7 175.39 138.36"/>
  <rect class="cls-4" x="2.5" y="76.47" width="197.84" height="39.09"/>
  <g>
    <path class="cls-5" d="M49,105.58H35.55V86H49V89.9H39.48v3.92h6.44v3.92H39.48v3.91H49Z"/>
    <path class="cls-5" d="M67.42,105.58h-4.2L55.66,92.68v12.91H51.74V86h4.2L63.5,98.9V86h3.92Z"/>
    <path class="cls-5" d="M86.66,103.6A10.08,10.08,0,0,1,80.11,106a10,10,0,0,1-5.1-1.39A10.47,10.47,0,0,1,73,103,9.9,9.9,0,0,1,71.37,101a10.29,10.29,0,0,1-1-2.43A10,10,0,0,1,70,95.86a9.84,9.84,0,0,1,.36-2.68,10.36,10.36,0,0,1,1-2.41A9.86,9.86,0,0,1,73,88.72a10.18,10.18,0,0,1,4.46-2.6,10.15,10.15,0,0,1,6.19.26,10.09,10.09,0,0,1,3,1.78l-2.05,3.42a6.58,6.58,0,0,0-2.05-1.42,6.13,6.13,0,0,0-4.86,0,6.42,6.42,0,0,0-2,1.33,6.31,6.31,0,0,0-1.34,2,6,6,0,0,0-.49,2.41,6,6,0,0,0,.49,2.43,6.33,6.33,0,0,0,3.32,3.32,6,6,0,0,0,2.41.49,5.76,5.76,0,0,0,1.44-.18,6.56,6.56,0,0,0,1.33-.49V95.86h3.79Z"/>
    <path class="cls-5" d="M93.61,105.58H89.68V86h3.92v7.85h7.83V86h3.92v19.61h-3.92V97.75H93.61Z"/>
    <path class="cls-5" d="M124.47,105.58h-3.92v-3.92H112.7v3.92h-3.91V93.82a7.65,7.65,0,0,1,.62-3.06,8,8,0,0,1,1.67-2.5,7.84,7.84,0,0,1,2.49-1.68,7.9,7.9,0,0,1,6.11,0,7.88,7.88,0,0,1,4.18,4.18,7.65,7.65,0,0,1,.62,3.06Zm-3.92-7.83V93.82a3.83,3.83,0,0,0-.31-1.52,3.91,3.91,0,0,0-2.09-2.09,3.93,3.93,0,0,0-3,0A3.91,3.91,0,0,0,113,92.3a3.83,3.83,0,0,0-.31,1.52v3.92Z"/>
    <path class="cls-5" d="M143.53,103.57a10.11,10.11,0,0,1-9.26,2.07,10.15,10.15,0,0,1-2.42-1,10.28,10.28,0,0,1-3.65-3.65,10.15,10.15,0,0,1-1-2.42,10.17,10.17,0,0,1,0-5.38,10.12,10.12,0,0,1,1-2.43,10.22,10.22,0,0,1,6.07-4.68A9.92,9.92,0,0,1,137,85.7a10.11,10.11,0,0,1,3.51.62,9.75,9.75,0,0,1,3.06,1.81l-2.08,3.42a5.88,5.88,0,0,0-2-1.43,6.25,6.25,0,0,0-2.46-.5,6,6,0,0,0-2.43.49,6.39,6.39,0,0,0-2,1.33,6.26,6.26,0,0,0-1.34,2,6.06,6.06,0,0,0-.49,2.43,6,6,0,0,0,.49,2.41,6.33,6.33,0,0,0,3.32,3.32,6,6,0,0,0,2.43.49,6.23,6.23,0,0,0,2.46-.5,5.86,5.86,0,0,0,2-1.43Z"/>
    <path class="cls-5" d="M149.72,105.58H145.8V86h3.92v9.8L157,86h4.46l-6.19,8.27,6.19,11.33H157l-4.31-7.93-3,4Z"/>
  </g>
  <g>
    <path class="cls-6" d="M74.27,65.24A2.9,2.9,0,0,1,74,66.39,2.94,2.94,0,0,1,72.46,68a2.9,2.9,0,0,1-1.15.23A3,3,0,0,1,70.26,68a2.84,2.84,0,0,1-.91-.56,2.82,2.82,0,0,1-.92.56,3,3,0,0,1-1.06.19A2.9,2.9,0,0,1,66.22,68a2.94,2.94,0,0,1-1.58-1.58,2.9,2.9,0,0,1-.23-1.15v-7h2v7a1,1,0,0,0,.08.39,1,1,0,0,0,1.61.32,1,1,0,0,0,.21-.32,1,1,0,0,0,.08-.39v-7h2v7a1,1,0,0,0,.08.39,1,1,0,0,0,.21.32,1,1,0,0,0,1.08.21,1,1,0,0,0,.31-.21,1,1,0,0,0,.21-.32,1,1,0,0,0,.08-.39v-7h2Z"/>
    <path class="cls-6" d="M83.81,68.06h-2v-2H77.89v2h-2V62.14a3.85,3.85,0,0,1,.31-1.54,4,4,0,0,1,.84-1.25,3.94,3.94,0,0,1,1.25-.85,4,4,0,0,1,3.07,0,4,4,0,0,1,2.1,2.1,3.85,3.85,0,0,1,.31,1.54Zm-2-3.94v-2a1.92,1.92,0,0,0-.16-.77,2,2,0,0,0-1.05-1.05,2,2,0,0,0-1.53,0,2,2,0,0,0-.63.42,2,2,0,0,0-.42.63,1.93,1.93,0,0,0-.15.77v2Z"/>
    <path class="cls-6" d="M89.36,68.06h-2V60.17h-3v-2h7.89v2h-3Z"/>
    <path class="cls-6" d="M100.13,68.06H93.37V58.2h6.76v2H95.34v2h3.24v2H95.34v2h4.79Z"/>
    <path class="cls-6" d="M103.48,68.06h-2V58.2h3.95a3.86,3.86,0,0,1,1,.14,4,4,0,0,1,.94.4,4,4,0,0,1,.8.62,4,4,0,0,1,1,1.74,3.94,3.94,0,0,1,0,2,4.06,4.06,0,0,1-.36.92,3.88,3.88,0,0,1-.58.8,4,4,0,0,1-.77.63l1.09,2.58h-2.1l-.86-2h-2.21Zm0-7.89v3.95h2a1.91,1.91,0,0,0,.76-.15,2,2,0,0,0,1-1.05,2,2,0,0,0,0-1.53,2,2,0,0,0-1-1.05,1.9,1.9,0,0,0-.76-.16Z"/>
    <path class="cls-6" d="M117.59,68.06h-6.9V58.2h2v7.89h4.93Z"/>
    <path class="cls-6" d="M127.94,63.17a5,5,0,0,1-.18,1.35,5.23,5.23,0,0,1-.51,1.22,5,5,0,0,1-.8,1,5.2,5.2,0,0,1-1,.8,5.09,5.09,0,0,1-1.22.52,5.13,5.13,0,0,1-2.71,0,5.15,5.15,0,0,1-3.05-2.35,5.07,5.07,0,0,1-.52-1.22,5.07,5.07,0,0,1,.52-3.92,5.2,5.2,0,0,1,.8-1,5.08,5.08,0,0,1,1-.8,5.19,5.19,0,0,1,1.22-.51,5.1,5.1,0,0,1,2.71,0,5.09,5.09,0,0,1,3.56,3.56A5,5,0,0,1,127.94,63.17Zm-2,0a3.05,3.05,0,0,0-.25-1.22,3.12,3.12,0,0,0-1.67-1.67,3.13,3.13,0,0,0-2.44,0,3.23,3.23,0,0,0-1,.67,3.15,3.15,0,0,0-.67,1,3.05,3.05,0,0,0-.25,1.22,3,3,0,0,0,.25,1.21A3.18,3.18,0,0,0,121.62,66a3.15,3.15,0,0,0,2.44,0,3.14,3.14,0,0,0,1-.67,3.22,3.22,0,0,0,.67-1A3,3,0,0,0,126,63.17Z"/>
    <path class="cls-6" d="M138.9,63.17a5,5,0,0,1-.18,1.35,5.23,5.23,0,0,1-.51,1.22,5,5,0,0,1-.8,1,5.2,5.2,0,0,1-1,.8,5.09,5.09,0,0,1-1.22.52,5.13,5.13,0,0,1-2.71,0,5.15,5.15,0,0,1-3.05-2.35,5.07,5.07,0,0,1-.52-1.22,5.07,5.07,0,0,1,.52-3.92,5.2,5.2,0,0,1,.8-1,5.08,5.08,0,0,1,1-.8,5.19,5.19,0,0,1,1.22-.51,5.1,5.1,0,0,1,2.71,0,5.09,5.09,0,0,1,3.56,3.56A5,5,0,0,1,138.9,63.17Zm-2,0a3.05,3.05,0,0,0-.25-1.22A3.12,3.12,0,0,0,135,60.28a3.13,3.13,0,0,0-2.44,0,3.23,3.23,0,0,0-1,.67,3.15,3.15,0,0,0-.67,1,3.05,3.05,0,0,0-.25,1.22,3,3,0,0,0,.25,1.21A3.18,3.18,0,0,0,132.58,66,3.15,3.15,0,0,0,135,66a3.14,3.14,0,0,0,1-.67,3.22,3.22,0,0,0,.67-1A3,3,0,0,0,136.94,63.17Z"/>
  </g>
  <circle class="cls-3" cx="101.42" cy="168.68" r="1.87"/>
  <circle class="cls-3" cx="120.63" cy="37.33" r="2.47"/>
  <polygon points="202.84 117.42 182.07 117.42 182.07 125.74 202.84 117.99 202.84 117.42"/>
  <polygon points="0 117.42 0 117.99 20.77 125.74 20.77 117.42 0 117.42"/>
</svg>
