<?xml version="1.0" encoding="utf-8"?>
<!-- Generator: Adobe Illustrator 16.0.4, SVG Export Plug-In . SVG Version: 6.00 Build 0)  -->
<!DOCTYPE svg PUBLIC "-//W3C//DTD SVG 1.1//EN" "http://www.w3.org/Graphics/SVG/1.1/DTD/svg11.dtd">
<svg version="1.1" xmlns="http://www.w3.org/2000/svg" xmlns:xlink="http://www.w3.org/1999/xlink" x="0px" y="0px" width="400px"
	 height="400px" viewBox="0 0 400 400" enable-background="new 0 0 400 400" xml:space="preserve">
<g id="Layer_4" display="none">
	<rect display="inline" fill-rule="evenodd" clip-rule="evenodd" fill="#401A6B" width="400" height="400"/>
</g>
<g id="rocket">
	<g>
		<path fill-rule="evenodd" clip-rule="evenodd" fill="#FFFFFF" d="M160.997,169.998c-0.278-0.362-0.483-0.726-0.604-1.087
			c-0.362-0.809-0.543-1.848-0.543-3.14c0-0.93,0.024-1.474,0.06-1.631c0.037-0.242,0.206-0.58,0.483-1.027
			c-0.241-0.242-0.785-0.64-1.63-1.208c-0.52-0.362-0.786-0.725-0.786-1.087c0-0.592,1.329-1.969,3.986-4.143
			c-1.8-0.025-3.624-0.29-5.497-0.81c-0.217-0.918-0.446-1.885-0.688-2.875c4.434-3.068,7.501-5.858,9.181-8.358
			c0.217-0.339,0.459-0.773,0.688-1.305c0.084-0.339,0.157-0.677,0.229-1.027c-5.207,1.364-10.243,3.032-15.135,5.013
			c-2.09,0.833-4.144,1.728-6.173,2.682c-1.111,2.489-1.849,5.085-2.234,7.779c-0.628,4.517-0.242,9.301,1.171,14.363
			c1.365,0.469,3.044,0.796,5.049,0.941c0.81,0.085,2.694,0.121,5.678,0.121c5.11,0,8.733-0.326,10.872-0.966
			c0.761-0.278,1.51-0.628,2.234-1.026C165.164,170.808,163.05,170.397,160.997,169.998z M320.625,250.387
			c-2.091-25.162-10.136-47.267-24.135-66.34l-11.559,0.627c-0.847-0.688-1.812-1.557-2.899-2.596
			c-1.087-1.04-3.116-2.912-6.077-5.618c-2.947-2.704-6.534-5.569-10.737-8.575c-4.216-3.021-10.341-6.5-18.397-10.449
			c-2.21-1.172-3.891-2.029-5.014-2.597c-1.968-0.966-3.767-1.631-5.374-1.993c-7.573-1.354-12.804-2.308-15.727-2.851
			c-1.595-0.302-2.5-0.471-2.693-0.531c-0.604-0.604-0.907-1.124-0.907-1.571c0-0.604,0.303-1.111,0.907-1.51
			c0.289-0.06,1.605,0.073,3.938,0.387c1.243,0.157,2.765,0.375,4.576,0.64c5.037,0.761,8.614,1.365,10.751,1.812
			c1.208,0.447,3.104,1.292,5.679,2.537c2.777,1.449,4.228,2.211,4.349,2.295c2.053,0.713,4.541,1.824,7.452,3.322l15.015-0.604
			c-0.013-0.012-0.013-0.025-0.023-0.025c-2.296-1.437-4.614-2.79-6.946-4.058c-3.6-1.944-7.259-3.696-10.968-5.279
			c-9.482-3.999-19.351-6.765-29.617-8.298c-1.561-0.229-3.132-0.435-4.7-0.604c-8.552-0.979-17.37-1.099-26.466-0.399
			c1.257,4.434,1.921,8.927,1.98,13.493c1.825,0.157,4.446,0.362,7.888,0.64c0.967,0.037,1.849,0.122,2.657,0.242
			c9.7,2.09,20.317,5.037,31.831,8.817c21.537,7.006,38.616,16.633,51.215,28.87c13.323,10.425,14.204,14.012,2.658,10.75
			c-21.259-6.124-38.073-11.269-50.432-15.461c-12.322-4.228-23.856-7.042-34.608-8.455c-3.502-0.448-6.969-0.93-10.388-1.45
			c-6.04,1.292-9.18,1.933-9.421,1.933c-0.689,0.085-3.467,0.121-8.335,0.121c-12.526,0-23.373-1.812-32.578-5.448
			c0.278,1.038,0.616,2.09,0.99,3.152c-0.604-0.76-1.147-1.533-1.63-2.294c-3.539-5.919-5.895-12.091-7.03-18.506
			c-13.082,7.453-24.896,17.395-35.429,29.8c-23.518,27.819-33.762,59.914-30.742,96.273c1.812,22.142,8.25,41.916,19.327,59.309
			c7.006,11.113,15.944,21.261,26.816,30.44c1.546,1.316,3.116,2.586,4.674,3.806c23.736,14.797,50.226,20.969,79.458,18.541
			c13.808-1.148,26.696-4.082,38.652-8.817c0.507-2.379,1.681-4.493,3.504-6.342c2.574-2.537,5.652-3.806,9.241-3.806
			c1.97,0,3.781,0.388,5.436,1.147c7.948-4.783,15.401-10.495,22.383-17.153c-0.531-0.458-1.039-0.94-1.546-1.448
			c-6.849-6.849-10.268-15.1-10.268-24.763s3.419-17.913,10.268-24.762c3.864-3.866,8.189-6.644,12.962-8.336
			c-0.604-0.447-1.173-0.954-1.727-1.51c-3.059-3.057-4.592-6.789-4.592-11.173c0-4.386,1.533-8.129,4.592-11.234
			c3.103-3.057,6.849-4.589,11.231-4.589c4.387,0,8.118,1.532,11.174,4.589c3.105,3.105,4.649,6.849,4.649,11.234
			c0,4.384-1.544,8.116-4.649,11.173c-0.17,0.169-0.337,0.351-0.508,0.519c1.766,0.412,3.469,0.968,5.135,1.655
			c2.295-7.718,3.84-15.678,4.614-23.892C321.278,267.152,321.313,258.891,320.625,250.387z M255.095,357.953
			c-2.053,2.09-4.529,3.141-7.429,3.141c-2.897,0-5.398-1.051-7.489-3.141c-2.053-2.054-3.081-4.531-3.081-7.428
			c0-2.9,1.028-5.401,3.081-7.49c2.091-2.054,4.592-3.08,7.489-3.08c2.899,0,5.376,1.026,7.429,3.08c2.09,2.089,3.14,4.59,3.14,7.49
			C258.234,353.422,257.185,355.899,255.095,357.953z M285.595,266.392c-1.123,1.123-2.475,1.691-4.046,1.691
			s-2.923-0.568-4.046-1.691s-1.691-2.477-1.691-4.047c0-1.571,0.568-2.922,1.691-4.047c1.123-1.123,2.475-1.69,4.046-1.69
			s2.923,0.567,4.046,1.69c1.123,1.125,1.692,2.476,1.692,4.047C287.287,263.915,286.718,265.269,285.595,266.392z M178.149,139.679
			c-0.701,0.109-1.389,0.229-2.078,0.362c0.097,1.644,0.206,3.273,0.327,4.893c-1.123,0.725-2.259,1.413-3.382,2.053
			c0.206,2.259,0.326,4.349,0.362,6.281c-0.048,0.024-0.084,0.06-0.133,0.084c0.29,0.012,0.592,0.012,0.919,0.037
			c0.482,0,0.99-0.266,1.51-0.786c0.688-0.688,1.208-1.111,1.57-1.268c-0.399-0.64-0.93-1.171-1.57-1.57
			c-0.81-0.363-1.475-0.7-1.994-1.027l-0.241-0.181c0.327,0,0.64,0.024,0.966,0.06h0.483c2.501,0.037,5.098,0.205,7.792,0.483
			c0.399,0.278,0.822,0.628,1.269,1.027c0.761,0.725,1.776,1.111,3.02,1.148c0.181,0.012,0.375,0.012,0.592,0.024
			C185.494,146.746,182.353,142.868,178.149,139.679z"/>
		<path fill-rule="evenodd" clip-rule="evenodd" fill="#FFFFFF" d="M287.166,37.91c-6.729-3.225-11.801-5.774-15.22-7.67
			c-5.919-2.694-10.908-4.554-14.978-5.557c-10.306-3.382-20.656-3.95-31.047-1.691c-0.565,0-1.061,0.145-1.51,0.422l-0.302-0.061
			l-6.594,115.153l-0.592,10.352c1.269,1.449,2.513,1.824,3.781,1.135c0.385-0.217,0.784-0.531,1.171-0.954
			c0.022-0.761,0.049-1.522,0.073-2.271c0.085-2.573,0.169-5.122,0.267-7.658c0.228-6.692,0.48-13.263,0.747-19.726
			c0.205-4.553,0.388-8.999,0.543-13.347c3.623-0.036,7.89,0.761,12.806,2.416c5.955,1.775,10.57,4.083,13.83,6.945
			c5.157,4.385,13.226,7.393,24.221,9c3.5,0.398,10.387,0.809,20.654,1.208h17.395c2.815,0.084,4.71-1.546,5.677-4.892
			c0.968-4.385,1.727-7.755,2.295-10.086c0.567-3.02,4.132-13.867,10.69-32.553c5.677-17.757,9.241-28.894,10.689-33.4
			C317.689,45.52,299.485,43.262,287.166,37.91z M249.778,82.543l-11.474-16.125l17.757-9l2.114,4.228l-12.744,6.402l8.575,11.777
			L249.778,82.543z M263.43,89.912l-5.254-1.208l23.736-31.889l5.312,1.147L263.43,89.912z M290.004,91.785l-2.779-3.926
			l13.109-6.462l-8.758-11.657l4.227-2.657l11.898,15.643L290.004,91.785z M167.302,64.304c-0.93-4.795-1.993-9.337-3.165-13.649
			c-1.329-5.038-2.815-9.76-4.47-14.194c-3.539-9.144-6.789-16.126-9.724-20.958c-2.379-3.949-4.771-6.849-7.187-8.697l-0.845,0.121
			c-0.278,0.362-0.544,0.749-0.785,1.148c-1.486,2.379-2.682,5.472-3.563,9.301c-1.365,5.52-2.331,13.143-2.899,22.89
			c-0.326,4.748-0.386,9.749-0.182,14.979c0.447,11.717,2.199,24.787,5.255,39.198c0.084,0.568,0.157,1.124,0.242,1.691
			c1.968,10.509,3.865,20.088,5.677,28.749c-0.688,0.278-1.388,0.725-2.113,1.329c-3.987,2.694-6.438,5.17-7.369,7.429
			c-1.281,6.486-1.498,12.767-0.665,18.844c1.401-6.27,2.694-10.823,3.89-13.65c1.196-2.814,3.636-5.918,7.32-9.301l2.923,12.925
			c0.338,1.667,0.701,3.286,1.1,4.856c0.132,0.52,0.265,1.039,0.411,1.546c1.329,0.362,2.597,0.665,3.805,0.906
			c0.29,1.112,0.555,2.187,0.821,3.225c4.434-3.068,7.501-5.858,9.181-8.358c0.217-0.339,0.459-0.773,0.688-1.305
			c0.084-0.339,0.157-0.677,0.229-1.027c0.326-1.462,0.64-2.936,0.918-4.445c0.157-0.81,0.302-1.643,0.447-2.476
			c0.012-0.06,0.025-0.109,0.036-0.169c0.012-0.06,0.024-0.109,0.024-0.169c0.108-0.628,0.205-1.256,0.314-1.896
			c0.109-0.688,0.217-1.389,0.314-2.102c0.097-0.604,0.181-1.208,0.253-1.812c0.073-0.58,0.145-1.159,0.217-1.751
			c0.073-0.483,0.12-0.979,0.182-1.474c0.097-0.87,0.193-1.74,0.265-2.609c0.085-0.736,0.145-1.485,0.206-2.246
			c0.072-0.834,0.145-1.668,0.193-2.513c0.061-0.665,0.109-1.341,0.145-2.018c0.06-0.942,0.121-1.896,0.157-2.863
			c0.048-0.894,0.085-1.8,0.121-2.718c0.048-1.377,0.084-2.766,0.108-4.179c0.024-1.377,0.036-2.779,0.036-4.192
			C169.827,90.878,168.981,78.086,167.302,64.304z M144.508,69.136c-0.326-2.017,0.146-3.782,1.389-5.315
			c1.124-1.654,2.682-2.633,4.65-2.959c2.018-0.278,3.781,0.181,5.315,1.389c1.607,1.172,2.574,2.754,2.9,4.771
			c0.277,1.969-0.182,3.72-1.39,5.254c-1.087,1.654-2.633,2.621-4.65,2.899c-1.969,0.277-3.745-0.158-5.315-1.329
			C145.801,72.674,144.834,71.104,144.508,69.136z M147.891,90.938c-0.278-1.933,0.157-3.684,1.328-5.254
			c1.172-1.607,2.718-2.573,4.65-2.899c2.018-0.242,3.781,0.205,5.315,1.329c1.655,1.208,2.622,2.778,2.899,4.711
			c0.326,2.054-0.121,3.842-1.329,5.375c-1.124,1.607-2.694,2.561-4.711,2.838c-1.933,0.326-3.685-0.096-5.254-1.268
			C149.135,94.599,148.168,92.993,147.891,90.938z M186.061,126.09c-1.449-1.969-4.493-3.648-9.12-5.013
			c-1.003-0.326-1.848-0.52-2.537-0.604l0.483,5.013c4.603,2.017,8.625,4.638,12.08,7.852c1.293,1.184,2.573,2.488,3.841,3.926
			C189.661,133.494,188.079,129.762,186.061,126.09z"/>
		<path fill-rule="evenodd" clip-rule="evenodd" fill="#401A6B" d="M143.506,172.137c-0.096-0.025-0.181-0.05-0.266-0.085
			c0.097,0.036,0.181,0.072,0.278,0.109C143.506,172.148,143.506,172.137,143.506,172.137z"/>
	</g>
</g>
</svg>
